{"asset":{"version":"2.0","generator":"Blockbench 5.1.4 glTF exporter"},"scenes":[{"nodes":[12],"name":"blockbench_export"}],"scene":0,"nodes":[{"translation":[0,0,-0.0625],"name":"head_mesh","mesh":0},{"translation":[0,1.25,0.0625],"name":"Head","children":[0]},{"translation":[0.0625,0,0],"name":"torso_mesh","mesh":1},{"translation":[0,1.3125,0],"name":"Torso","children":[2]},{"translation":[0.0625,0,0],"name":"right_leg_mesh","mesh":2},{"translation":[0,0.75,0.25],"name":"Right_Leg","children":[4]},{"translation":[0,0,0.0625],"name":"left_leg_mesh","mesh":3},{"translation":[0.0625,0.75,-0.3125],"name":"Left_Leg","children":[6]},{"rotation":[-0.7071067811865475,0,0,0.7071067811865476],"translation":[0.0625,0,0],"name":"right_arm_mesh","mesh":4},{"translation":[0,1.125,0.25],"name":"Right_Arm","children":[8]},{"rotation":[-0.7071067811865475,0,0,0.7071067811865476],"name":"left_arm_mesh","mesh":5},{"translation":[0.0625,1.125,-0.25],"name":"Left_Arm","children":[10]},{"name":"Stalker","children":[1,3,5,7,9,11]}],"bufferViews":[{"buffer":0,"byteOffset":0,"byteLength":1152,"target":34962,"byteStride":12},{"buffer":0,"byteOffset":1152,"byteLength":1152,"target":34962,"byteStride":12},{"buffer":0,"byteOffset":2304,"byteLength":768,"target":34962,"byteStride":8},{"buffer":0,"byteOffset":3072,"byteLength":264,"target":34963},{"buffer":0,"byteOffset":3336,"byteLength":2304,"target":34962,"byteStride":12},{"buffer":0,"byteOffset":5640,"byteLength":2304,"target":34962,"byteStride":12},{"buffer":0,"byteOffset":7944,"byteLength":1536,"target":34962,"byteStride":8},{"buffer":0,"byteOffset":9480,"byteLength":576,"target":34963},{"buffer":0,"byteOffset":10056,"byteLength":288,"target":34962,"byteStride":12},{"buffer":0,"byteOffset":10344,"byteLength":288,"target":34962,"byteStride":12},{"buffer":0,"byteOffset":10632,"byteLength":192,"target":34962,"byteStride":8},{"buffer":0,"byteOffset":10824,"byteLength":72,"target":34963},{"buffer":0,"byteOffset":10896,"byteLength":288,"target":34962,"byteStride":12},{"buffer":0,"byteOffset":11184,"byteLength":288,"target":34962,"byteStride":12},{"buffer":0,"byteOffset":11472,"byteLength":192,"target":34962,"byteStride":8},{"buffer":0,"byteOffset":11664,"byteLength":72,"target":34963},{"buffer":0,"byteOffset":11736,"byteLength":288,"target":34962,"byteStride":12},{"buffer":0,"byteOffset":12024,"byteLength":288,"target":34962,"byteStride":12},{"buffer":0,"byteOffset":12312,"byteLength":192,"target":34962,"byteStride":8},{"buffer":0,"byteOffset":12504,"byteLength":72,"target":34963},{"buffer":0,"byteOffset":12576,"byteLength":288,"target":34962,"byteStride":12},{"buffer":0,"byteOffset":12864,"byteLength":288,"target":34962,"byteStride":12},{"buffer":0,"byteOffset":13152,"byteLength":192,"target":34962,"byteStride":8},{"buffer":0,"byteOffset":13344,"byteLength":72,"target":34963},{"buffer":0,"byteOffset":13416,"byteLength":12},{"buffer":0,"byteOffset":13428,"byteLength":48},{"buffer":0,"byteOffset":13476,"byteLength":12},{"buffer":0,"byteOffset":13488,"byteLength":48},{"buffer":0,"byteOffset":13536,"byteLength":12},{"buffer":0,"byteOffset":13548,"byteLength":48},{"buffer":0,"byteOffset":13596,"byteLength":12},{"buffer":0,"byteOffset":13608,"byteLength":48},{"buffer":0,"byteOffset":13656,"byteLength":8},{"buffer":0,"byteOffset":13664,"byteLength":32},{"buffer":0,"byteOffset":13696,"byteLength":8},{"buffer":0,"byteOffset":13704,"byteLength":32},{"buffer":0,"byteOffset":13736,"byteLength":12},{"buffer":0,"byteOffset":13748,"byteLength":48},{"buffer":0,"byteOffset":13796,"byteLength":8},{"buffer":0,"byteOffset":13804,"byteLength":32}],"buffers":[{"byteLength":13836,"uri":"data:application/octet-stream;base64,"}],"accessors":[{"bufferView":0,"componentType":5126,"count":96,"max":[0.5,1,0.5],"min":[-0.5,0,-0.5],"type":"VEC3"},{"bufferView":1,"componentType":5126,"count":96,"max":[1,1,1],"min":[-1,-1,-1],"type":"VEC3"},{"bufferView":2,"componentType":5126,"count":96,"max":[0.65625,0.625],"min":[0,0],"type":"VEC2"},{"bufferView":3,"componentType":5123,"count":132,"max":[95],"min":[0],"type":"SCALAR"},{"bufferView":4,"componentType":5126,"count":192,"max":[0.25,0.4375,0.25],"min":[-0.25,-0.8125,-0.25],"type":"VEC3"},{"bufferView":5,"componentType":5126,"count":192,"max":[1,1,1],"min":[-1,-1,-1],"type":"VEC3"},{"bufferView":6,"componentType":5126,"count":192,"max":[0.5,0.640625],"min":[0.004446874838322401,0],"type":"VEC2"},{"bufferView":7,"componentType":5123,"count":288,"max":[191],"min":[0],"type":"SCALAR"},{"bufferView":8,"componentType":5126,"count":24,"max":[0.125,0,0.125],"min":[-0.125,-0.625,-0.125],"type":"VEC3"},{"bufferView":9,"componentType":5126,"count":24,"max":[1,1,1],"min":[-1,-1,-1],"type":"VEC3"},{"bufferView":10,"componentType":5126,"count":24,"max":[0.4375,0.65625],"min":[0,0],"type":"VEC2"},{"bufferView":11,"componentType":5123,"count":36,"max":[23],"min":[0],"type":"SCALAR"},{"bufferView":12,"componentType":5126,"count":24,"max":[0.125,0,0.125],"min":[-0.125,-0.625,-0.125],"type":"VEC3"},{"bufferView":13,"componentType":5126,"count":24,"max":[1,1,1],"min":[-1,-1,-1],"type":"VEC3"},{"bufferView":14,"componentType":5126,"count":24,"max":[0.4375,0.65625],"min":[0,0],"type":"VEC2"},{"bufferView":15,"componentType":5123,"count":36,"max":[23],"min":[0],"type":"SCALAR"},{"bufferView":16,"componentType":5126,"count":24,"max":[0.0625,0,0.0625],"min":[-0.0625,-0.625,-0.0625],"type":"VEC3"},{"bufferView":17,"componentType":5126,"count":24,"max":[1,1,1],"min":[-1,-1,-1],"type":"VEC3"},{"bufferView":18,"componentType":5126,"count":24,"max":[0.6875,0.8125],"min":[0,0],"type":"VEC2"},{"bufferView":19,"componentType":5123,"count":36,"max":[23],"min":[0],"type":"SCALAR"},{"bufferView":20,"componentType":5126,"count":24,"max":[0.0625,0.625,0.0625],"min":[-0.0625,0,-0.0625],"type":"VEC3"},{"bufferView":21,"componentType":5126,"count":24,"max":[1,1,1],"min":[-1,-1,-1],"type":"VEC3"},{"bufferView":22,"componentType":5126,"count":24,"max":[0.6875,0.8125],"min":[0,0],"type":"VEC2"},{"bufferView":23,"componentType":5123,"count":36,"max":[23],"min":[0],"type":"SCALAR"},{"bufferView":24,"componentType":5126,"count":3,"max":[0.7916666865348816],"min":[0],"type":"SCALAR"},{"bufferView":25,"componentType":5126,"count":3,"max":[0,0,0.06540312618017197,1],"min":[0,0,-0.2164396196603775,0.9762960076332092],"type":"VEC4"},{"bufferView":26,"componentType":5126,"count":3,"max":[0.7916666865348816],"min":[0],"type":"SCALAR"},{"bufferView":27,"componentType":5126,"count":3,"max":[0,0,0.659345805644989,1],"min":[0,0,-0.4226182699203491,0.751839816570282],"type":"VEC4"},{"bufferView":28,"componentType":5126,"count":3,"max":[0.7916666865348816],"min":[0],"type":"SCALAR"},{"bufferView":29,"componentType":5126,"count":3,"max":[0,0,0.6915130615234375,1],"min":[0,0,-0.3214394748210907,0.7223639488220215],"type":"VEC4"},{"bufferView":30,"componentType":5126,"count":3,"max":[0.7916666865348816],"min":[0],"type":"SCALAR"},{"bufferView":31,"componentType":5126,"count":3,"max":[0,0.7071067690849304,0,1],"min":[0,0,0,0.7071067690849304],"type":"VEC4"},{"bufferView":32,"componentType":5126,"count":2,"max":[0.7916666865348816],"min":[0],"type":"SCALAR"},{"bufferView":33,"componentType":5126,"count":2,"max":[0,0,0,1],"min":[0,-0.7223639488220215,0,0.6915130615234375],"type":"VEC4"},{"bufferView":34,"componentType":5126,"count":2,"max":[0.5],"min":[0],"type":"SCALAR"},{"bufferView":35,"componentType":5126,"count":2,"max":[0,0,0.9600498676300049,1],"min":[0,0,0,0.2798290252685547],"type":"VEC4"},{"bufferView":36,"componentType":5126,"count":3,"max":[0.3333333432674408],"min":[0],"type":"SCALAR"},{"bufferView":37,"componentType":5126,"count":3,"max":[0,0.6915130615234375,0.16806930303573608,1],"min":[-0.16806930303573608,0,0,0.6868425607681274],"type":"VEC4"},{"bufferView":38,"componentType":5126,"count":2,"max":[0.3333333432674408],"min":[0],"type":"SCALAR"},{"bufferView":39,"componentType":5126,"count":2,"max":[0,0,0,1],"min":[0,-0.8064445853233337,0,0.591309666633606],"type":"VEC4"}],"materials":[{"pbrMetallicRoughness":{"metallicFactor":0,"roughnessFactor":1,"baseColorTexture":{"index":0}},"alphaMode":"MASK","alphaCutoff":0.05,"doubleSided":true},{"pbrMetallicRoughness":{"metallicFactor":0,"roughnessFactor":1,"baseColorTexture":{"index":1}},"alphaMode":"MASK","alphaCutoff":0.05,"doubleSided":true},{"pbrMetallicRoughness":{"metallicFactor":0,"roughnessFactor":1,"baseColorTexture":{"index":2}},"alphaMode":"MASK","alphaCutoff":0.05,"doubleSided":true},{"pbrMetallicRoughness":{"metallicFactor":0,"roughnessFactor":1,"baseColorTexture":{"index":3}},"alphaMode":"MASK","alphaCutoff":0.05,"doubleSided":true},{"pbrMetallicRoughness":{"metallicFactor":0,"roughnessFactor":1,"baseColorTexture":{"index":4}},"alphaMode":"MASK","alphaCutoff":0.05,"doubleSided":true},{"pbrMetallicRoughness":{"metallicFactor":0,"roughnessFactor":1,"baseColorTexture":{"index":5}},"alphaMode":"MASK","alphaCutoff":0.05,"doubleSided":true}],"textures":[{"sampler":0,"source":0,"name":"stalker_head"},{"sampler":1,"source":1,"name":"stalker_torso"},{"sampler":2,"source":2,"name":"stalker_r_leg"},{"sampler":3,"source":3,"name":"stalker_l_leg"},{"sampler":4,"source":4,"name":"stalker_r_arm"},{"sampler":5,"source":5,"name":"stalker_l_arm"}],"samplers":[{"magFilter":9728,"minFilter":9728,"wrapS":33071,"wrapT":33071},{"magFilter":9728,"minFilter":9728,"wrapS":33071,"wrapT":33071},{"magFilter":9728,"minFilter":9728,"wrapS":33071,"wrapT":33071},{"magFilter":9728,"minFilter":9728,"wrapS":33071,"wrapT":33071},{"magFilter":9728,"minFilter":9728,"wrapS":33071,"wrapT":33071},{"magFilter":9728,"minFilter":9728,"wrapS":33071,"wrapT":33071}],"images":[{"mimeType":"image/png","name":"stalker_head","uri":"stalker_head.png"},{"mimeType":"image/png","name":"stalker_torso","uri":"stalker_torso.png"},{"mimeType":"image/png","name":"stalker_r_leg","uri":"stalker_r_leg.png"},{"mimeType":"image/png","name":"stalker_l_leg","uri":"stalker_l_leg.png"},{"mimeType":"image/png","name":"stalker_r_arm","uri":"stalker_r_arm.png"},{"mimeType":"image/png","name":"stalker_l_arm","uri":"stalker_l_arm.png"}],"meshes":[{"primitives":[{"mode":4,"attributes":{"POSITION":0,"NORMAL":1,"TEXCOORD_0":2},"indices":3,"material":0}]},{"primitives":[{"mode":4,"attributes":{"POSITION":4,"NORMAL":5,"TEXCOORD_0":6},"indices":7,"material":1}]},{"primitives":[{"mode":4,"attributes":{"POSITION":8,"NORMAL":9,"TEXCOORD_0":10},"indices":11,"material":2}]},{"primitives":[{"mode":4,"attributes":{"POSITION":12,"NORMAL":13,"TEXCOORD_0":14},"indices":15,"material":3}]},{"primitives":[{"mode":4,"attributes":{"POSITION":16,"NORMAL":17,"TEXCOORD_0":18},"indices":19,"material":4}]},{"primitives":[{"mode":4,"attributes":{"POSITION":20,"NORMAL":21,"TEXCOORD_0":22},"indices":23,"material":5}]}],"animations":[{"name":"animation.stalker.run","samplers":[{"input":24,"output":25,"interpolation":"LINEAR"},{"input":26,"output":27,"interpolation":"LINEAR"},{"input":28,"output":29,"interpolation":"LINEAR"},{"input":30,"output":31,"interpolation":"LINEAR"},{"input":32,"output":33,"interpolation":"LINEAR"}],"channels":[{"sampler":0,"target":{"node":1,"path":"rotation"}},{"sampler":1,"target":{"node":5,"path":"rotation"}},{"sampler":2,"target":{"node":7,"path":"rotation"}},{"sampler":3,"target":{"node":9,"path":"rotation"}},{"sampler":4,"target":{"node":11,"path":"rotation"}}]},{"name":"animation.stalker.attack","samplers":[{"input":34,"output":35,"interpolation":"LINEAR"},{"input":36,"output":37,"interpolation":"LINEAR"},{"input":38,"output":39,"interpolation":"LINEAR"}],"channels":[{"sampler":0,"target":{"node":5,"path":"rotation"}},{"sampler":1,"target":{"node":9,"path":"rotation"}},{"sampler":2,"target":{"node":11,"path":"rotation"}}]}]}